<?xml version="1.0" standalone="no"?><!DOCTYPE svg PUBLIC "-//W3C//DTD SVG 1.1//EN" "http://www.w3.org/Graphics/SVG/1.1/DTD/svg11.dtd"><svg t="1624378022917" class="icon" viewBox="0 0 1024 1024" version="1.1" xmlns="http://www.w3.org/2000/svg" p-id="538" xmlns:xlink="http://www.w3.org/1999/xlink" width="200" height="200"><defs><style type="text/css"></style></defs><path d="M428.8 258.133333h283.733333c8.533333 0 14.933333-2.133333 19.2-8.533333 6.4-6.4 8.533333-12.8 8.533334-19.2V172.8c0-8.533333-2.133333-14.933333-8.533334-19.2-6.4-6.4-12.8-8.533333-19.2-8.533333h-283.733333c-8.533333 0-14.933333 2.133333-19.2 8.533333s-8.533333 12.8-8.533333 19.2v57.6c0 8.533333 2.133333 14.933333 8.533333 19.2 4.266667 4.266667 12.8 8.533333 19.2 8.533333z m142.933333 450.133334v59.733333c0 32-6.4 57.6-21.333333 78.933333s-36.266667 32-64 32-49.066667-10.666667-61.866667-29.866666c-14.933333-21.333333-21.333333-46.933333-21.333333-78.933334v-170.666666l-68.266667 46.933333c-6.4 4.266667-12.8 6.4-19.2 6.4-6.4 0-12.8-2.133333-19.2-8.533333l-64-61.866667c-8.533333-8.533333-8.533333-19.2-4.266666-29.866667l130.133333-206.933333s0-2.133333 2.133333-4.266667c0-2.133333 2.133333-4.266667 6.4-8.533333 2.133333-4.266667 6.4-6.4 8.533334-10.666667s6.4-6.4 10.666666-8.533333c4.266667-2.133333 8.533333-4.266667 12.8-4.266667h298.666667c4.266667 0 23.466667 14.933333 53.333333 46.933334s46.933333 49.066667 46.933334 51.2v194.133333c0 6.4-4.266667 10.666667-10.666667 17.066667s-14.933333 8.533333-23.466667 10.666666l-192 78.933334z m-166.4-337.066667l-134.4 192 46.933334 49.066667 104.533333-83.2c8.533333-6.4 17.066667-6.4 27.733333-2.133334 0 0 2.133333 0 2.133334 2.133334s2.133333 2.133333 2.133333 2.133333 0 2.133333 2.133333 2.133333c0 0 0 2.133333 2.133334 2.133334v277.333333c0 8.533333 4.266667 14.933333 14.933333 17.066667 8.533333 4.266667 19.2 4.266667 27.733333 0s14.933333-8.533333 14.933334-17.066667v-115.2c0-6.4 4.266667-10.666667 10.666666-17.066667 8.533333-4.266667 14.933333-8.533333 23.466667-10.666666l192-74.666667V428.8l-51.2-57.6H405.333333z" p-id="539" fill="#d81e06"></path></svg>
