<?xml version="1.0" standalone="no"?><!DOCTYPE svg PUBLIC "-//W3C//DTD SVG 1.1//EN" "http://www.w3.org/Graphics/SVG/1.1/DTD/svg11.dtd"><svg t="1624543875328" class="icon" viewBox="0 0 1024 1024" version="1.1" xmlns="http://www.w3.org/2000/svg" p-id="5011" xmlns:xlink="http://www.w3.org/1999/xlink" width="200" height="200"><defs><style type="text/css"></style></defs><path d="M444.8 667.2h145.6v56h-145.6zM444.8 548.8h145.6v54.4h-145.6z" fill="#E46E57" p-id="5012"></path><path d="M10.24 17.06666667v996.69333333H1006.93333333V17.06666667H10.24z m230.4 109.22666666l83.62666667 18.77333334-13.65333334 34.13333333H512v75.09333333h-104.10666667c15.36 20.48 29.01333333 42.66666667 39.25333334 66.56l-76.8 29.01333334c-15.36-32.42666667-32.42666667-64.85333333-52.90666667-95.57333334H273.06666667c-18.77333333 32.42666667-40.96 63.14666667-64.85333334 92.16l-73.38666666-47.78666666c46.08-49.49333333 81.92-107.52 105.81333333-172.37333334z m35.84 773.12h-87.04V448.85333333h87.04v450.56z m-40.96-544.42666666l61.44-39.25333334c35.84 32.42666667 69.97333333 66.56 98.98666667 104.10666667l-63.14666667 44.37333333c-29.01333333-39.25333333-63.14666667-75.09333333-97.28-109.22666666z m122.88 126.29333333h319.14666667v327.68H358.4V481.28z m486.4 324.26666667c0 58.02666667-30.72 88.74666667-95.57333333 88.74666666l-68.26666667-1.70666666-20.48-78.50666667 73.38666667 3.41333333c17.06666667 0 25.6-11.94666667 25.6-34.13333333V430.08H457.38666667v-78.50666667h389.12v453.97333334z m44.37333333-551.25333334h-119.46666666c13.65333333 18.77333333 25.6 39.25333333 37.54666666 59.73333334l-76.8 29.01333333c-15.36-30.72-32.42666667-59.73333333-51.2-88.74666667h-52.90666666c-15.36 27.30666667-32.42666667 54.61333333-51.2 80.21333334l-73.38666667-47.78666667c39.25333333-47.78666667 68.26666667-102.4 85.33333333-162.13333333l81.92 18.77333333c-5.12 15.36-8.53333333 27.30666667-11.94666666 34.13333333H887.46666667v76.8z" fill="#E46E57" p-id="5013"></path></svg>