<svg t="1624682612125" class="icon" viewBox="0 0 1024 1024" version="1.1" xmlns="http://www.w3.org/2000/svg" p-id="2402" width="200" height="200"><path d="M414.1 831.8c-61.3 61.3-160.7 61.3-222 0-61.3-61.3-61.3-160.7 0-222l140.7-140.7c15.63-15.63 15.63-40.97 0-56.6-15.63-15.63-40.97-15.63-56.6 0L135.5 553.2c-92.6 92.6-92.6 242.6 0 335.2s242.6 92.6 335.2 0l140.7-140.7c15.63-15.63 15.63-40.97 0-56.6-15.63-15.63-40.97-15.63-56.6 0L414.1 831.8zM887.8 136c-92.6-92.6-242.6-92.6-335.2 0L411.9 276.7c-15.63 15.63-15.63 40.97 0 56.6 15.63 15.63 40.97 15.63 56.6 0l140.7-140.7c61.3-61.3 160.7-61.3 222 0 61.3 61.3 61.3 160.7 0 222L690.5 555.3c-15.63 15.63-15.63 40.97 0 56.6 15.63 15.63 40.97 15.63 56.6 0l140.7-140.7c92.6-92.6 92.6-242.7 0-335.2z" p-id="2403" fill="#0a7cf8"></path><path d="M320 703.8c17.2 17.2 45 17.2 62.2 0l321-321c17.2-17.2 17.2-45 0-62.2-17.2-17.2-45-17.2-62.2 0l-321 321c-17.2 17.1-17.2 45 0 62.2z" p-id="2404" fill="#0a7cf8"></path></svg>