<svg xmlns="http://www.w3.org/2000/svg" viewBox="0 0 732.25 147.94"><defs><style>.cls-1,.cls-2{fill:#13b4ff;}.cls-1{fill-rule:evenodd;}</style></defs><g id="图层_2" data-name="图层 2"><g id="图层_1-2" data-name="图层 1"><g id="Artboard"><g id="Group"><path id="L-ntCode" class="cls-1" d="M0,10.23H17.56V118.54H68.32v15.35H0ZM265.46,66.87v67h-17.4V70.74c0-13.2-6.5-20.81-18.62-20.81a23.37,23.37,0,0,0-22.13,15.7v68.28H189.94v-97h13.34l3.52,9.88h.7a36.14,36.14,0,0,1,27.05-12C253.69,34.76,265.11,45.33,265.46,66.87ZM321,134.79c-16.16,0-25.82-8.45-25.82-28.23V50.62H281.47V39.68l13.7-3.53,5.62-24.53h11.59V36.88H338.2V50.62H312.38v55.59c0,9.51,4.92,13.73,12.82,13.73a24.39,24.39,0,0,0,14.41-3.69l4.56,13.58A41.81,41.81,0,0,1,321,134.79ZM356.47,73c0-40.05,17.74-64.57,51.46-64.57,20.37,0,30.56,7.92,34.42,11.46L430.94,33.34a32.32,32.32,0,0,0-24.38-9.17c-20.2,0-32,14.8-32,47.64,0,31.05,11.42,48,33.55,48a31.22,31.22,0,0,0,23.36-8.29L441.33,124c-5.29,5.65-16.69,11.63-35.3,11.63-35,0-49.54-24.87-49.54-62.62ZM473.12,84.67c0,24.17,7,36.34,23.88,36.34s22.83-11.46,22.83-35.11c0-24.34-6.86-36.34-23.88-36.34-16.32,0-22.82,11.48-22.82,35.12ZM496,135.48c-30.56,0-40.75-19.94-40.75-49.76,0-30,11.59-50.63,41.8-50.63,30.56,0,40.74,19.93,40.74,49.75,0,30-11.57,50.65-41.77,50.65Zm118.25-97V0h17.21V133.91H618.24l-3.34-9.35h-.7a30.53,30.53,0,0,1-24.77,11.09c-21.42,0-35.65-14.11-35.65-45.87,0-36.87,19.67-53.1,44.78-53.1A69.8,69.8,0,0,1,614.2,38.46Zm-20.38,82.75a21.57,21.57,0,0,0,20.55-13.41V54.16a39,39,0,0,0-14-2.64c-18.26,0-28.8,9.88-28.8,36.52,0,24.7,10.36,33.17,22.3,33.17Zm127.71-8.29,7.73,13a50,50,0,0,1-32,9.35c-28.45,0-43.56-15-43.56-50.28,0-34.05,19-49.93,42.33-49.93s36.18,15.18,36.18,38.47a157.29,157.29,0,0,1-.88,16.94H671c1.06,21.34,10,30.34,28.45,30.34a34.28,34.28,0,0,0,22.13-8ZM695,49.4c-12.29,0-22.83,8.12-23.71,28.05H715.4c.17-1.77.17-3.53.17-4.76C715.56,57.69,709.06,49.4,695,49.4Z"/><path id="Shape" class="cls-2" d="M156.46,39a3.44,3.44,0,0,1,.59,3.91L110.88,145.72a3.77,3.77,0,0,1-3.6,2.22,8,8,0,0,1-1.19-.18,3.69,3.69,0,0,1-2.19-1.7,3.48,3.48,0,0,1-.38-2.64l16.87-71.8-34.72,9a4.49,4.49,0,0,1-1,.09,3.89,3.89,0,0,1-2.64-1,3.41,3.41,0,0,1-1.11-3.47L98.08,3A3.86,3.86,0,0,1,101.81.11h28.06a3.7,3.7,0,0,1,2.73,1.11,3.57,3.57,0,0,1,1.11,2.64,3.66,3.66,0,0,1-.43,1.59L118.66,46.58l33.87-8.71a4.36,4.36,0,0,1,1-.18A4,4,0,0,1,156.46,39Z"/></g></g></g></g></svg>