<svg t="1624700886414" class="icon" viewBox="0 0 1024 1024" version="1.1" xmlns="http://www.w3.org/2000/svg" p-id="2057" width="200" height="200"><path d="M859.446766 143.665672c203.271642 193.082587 211.932338 514.037811 18.849751 717.309452-95.777114 100.871642-229.253731 158.439801-368.334328 158.439801-280.199005 0-507.414925-227.21592-507.414925-507.414925C2.547264 372.919403 59.60597 239.442786 160.987065 143.665672l100.871641 109.532338a359.123423 359.123423 0 0 0-110.041791 258.80199c0 63.681592 16.302488 123.287562 45.341294 174.742289l200.724378-193.59204 92.720398-206.328358v319.936318l-195.629851 192.063682C357.126368 845.691542 433.034826 871.164179 510.471642 870.654726c77.946269 0 153.854726-25.472637 216.00796-72.342288l-195.120398-191.554229V286.821891l92.720398 206.328358 200.214925 193.082587c29.548259-53.492537 45.341294-113.60796 45.341294-174.742289 0-97.814925-39.737313-191.044776-110.041791-258.80199l99.852736-109.022885z" fill="#43484C" p-id="2058"></path><path d="M511.490547 151.307463C430.487562 151.307463 351.522388 178.81791 288.350249 229.253731L187.478607 119.721393C278.670647 43.812935 393.297512 2.547264 511.490547 2.547264c123.287562 0 236.38607 43.812935 324.521393 117.174129L735.140299 229.253731c-64.191045-50.435821-142.646766-77.946269-223.649752-77.946268z" fill="#F99E1A" p-id="2059"></path></svg>